<mxfile host="app.diagrams.net" modified="2024-05-27T22:24:40.989Z" agent="Mozilla/5.0 (Windows NT 10.0; Win64; x64) AppleWebKit/537.36 (KHTML, like Gecko) Chrome/125.0.0.0 Safari/537.36" etag="YGhnXppFOt_mjAyW7TMX" version="24.4.8" type="device">
  <diagram id="C5RBs43oDa-KdzZeNtuy" name="Page-1">
    <mxGraphModel dx="1909" dy="1013" grid="1" gridSize="10" guides="1" tooltips="1" connect="1" arrows="1" fold="1" page="1" pageScale="1" pageWidth="1169" pageHeight="827" background="#ffffff" math="0" shadow="0">
      <root>
        <mxCell id="WIyWlLk6GJQsqaUBKTNV-0" />
        <mxCell id="WIyWlLk6GJQsqaUBKTNV-1" parent="WIyWlLk6GJQsqaUBKTNV-0" />
        <mxCell id="zkfFHV4jXpPFQw0GAbJ--0" value="medcontrol_db" style="swimlane;fontStyle=2;align=center;verticalAlign=top;childLayout=stackLayout;horizontal=1;startSize=26;horizontalStack=0;resizeParent=1;resizeLast=0;collapsible=1;marginBottom=0;rounded=0;shadow=0;strokeWidth=1;" parent="WIyWlLk6GJQsqaUBKTNV-1" vertex="1">
          <mxGeometry x="370" y="160" width="160" height="90" as="geometry">
            <mxRectangle x="230" y="140" width="160" height="26" as="alternateBounds" />
          </mxGeometry>
        </mxCell>
        <mxCell id="zkfFHV4jXpPFQw0GAbJ--4" value="" style="line;html=1;strokeWidth=1;align=left;verticalAlign=middle;spacingTop=-1;spacingLeft=3;spacingRight=3;rotatable=0;labelPosition=right;points=[];portConstraint=eastwest;" parent="zkfFHV4jXpPFQw0GAbJ--0" vertex="1">
          <mxGeometry y="26" width="160" height="8" as="geometry" />
        </mxCell>
        <mxCell id="zkfFHV4jXpPFQw0GAbJ--5" value="# connect()" style="text;align=left;verticalAlign=top;spacingLeft=4;spacingRight=4;overflow=hidden;rotatable=0;points=[[0,0.5],[1,0.5]];portConstraint=eastwest;" parent="zkfFHV4jXpPFQw0GAbJ--0" vertex="1">
          <mxGeometry y="34" width="160" height="28" as="geometry" />
        </mxCell>
        <mxCell id="zkfFHV4jXpPFQw0GAbJ--6" value="CADASTRO_FUNCIONARIO" style="swimlane;fontStyle=0;align=center;verticalAlign=top;childLayout=stackLayout;horizontal=1;startSize=26;horizontalStack=0;resizeParent=1;resizeLast=0;collapsible=1;marginBottom=0;rounded=0;shadow=0;strokeWidth=1;" parent="WIyWlLk6GJQsqaUBKTNV-1" vertex="1">
          <mxGeometry x="110" y="360" width="180" height="100" as="geometry">
            <mxRectangle x="130" y="380" width="160" height="26" as="alternateBounds" />
          </mxGeometry>
        </mxCell>
        <mxCell id="zkfFHV4jXpPFQw0GAbJ--9" value="" style="line;html=1;strokeWidth=1;align=left;verticalAlign=middle;spacingTop=-1;spacingLeft=3;spacingRight=3;rotatable=0;labelPosition=right;points=[];portConstraint=eastwest;" parent="zkfFHV4jXpPFQw0GAbJ--6" vertex="1">
          <mxGeometry y="26" width="180" height="8" as="geometry" />
        </mxCell>
        <mxCell id="zkfFHV4jXpPFQw0GAbJ--11" value="# Set_usuario()&#xa;# Checar_usuario()&#xa;# Connect() -extended&#xa;" style="text;align=left;verticalAlign=top;spacingLeft=4;spacingRight=4;overflow=hidden;rotatable=0;points=[[0,0.5],[1,0.5]];portConstraint=eastwest;" parent="zkfFHV4jXpPFQw0GAbJ--6" vertex="1">
          <mxGeometry y="34" width="180" height="66" as="geometry" />
        </mxCell>
        <mxCell id="zkfFHV4jXpPFQw0GAbJ--12" value="" style="endArrow=block;endSize=10;endFill=0;shadow=0;strokeWidth=1;rounded=0;curved=0;edgeStyle=elbowEdgeStyle;elbow=vertical;" parent="WIyWlLk6GJQsqaUBKTNV-1" source="zkfFHV4jXpPFQw0GAbJ--6" target="zkfFHV4jXpPFQw0GAbJ--0" edge="1">
          <mxGeometry width="160" relative="1" as="geometry">
            <mxPoint x="200" y="203" as="sourcePoint" />
            <mxPoint x="200" y="203" as="targetPoint" />
          </mxGeometry>
        </mxCell>
        <mxCell id="zkfFHV4jXpPFQw0GAbJ--16" value="" style="endArrow=block;endSize=10;endFill=0;shadow=0;strokeWidth=1;rounded=0;curved=0;edgeStyle=elbowEdgeStyle;elbow=vertical;exitX=0.5;exitY=0;exitDx=0;exitDy=0;" parent="WIyWlLk6GJQsqaUBKTNV-1" source="9lJRW0mbOuph0sGCFReC-1" edge="1">
          <mxGeometry width="160" relative="1" as="geometry">
            <mxPoint x="450" y="342" as="sourcePoint" />
            <mxPoint x="450" y="250" as="targetPoint" />
            <Array as="points">
              <mxPoint x="500" y="352" />
            </Array>
          </mxGeometry>
        </mxCell>
        <mxCell id="9lJRW0mbOuph0sGCFReC-1" value="LOGIN_FUNCIONARIO" style="swimlane;fontStyle=0;align=center;verticalAlign=top;childLayout=stackLayout;horizontal=1;startSize=26;horizontalStack=0;resizeParent=1;resizeLast=0;collapsible=1;marginBottom=0;rounded=0;shadow=0;strokeWidth=1;" parent="WIyWlLk6GJQsqaUBKTNV-1" vertex="1">
          <mxGeometry x="360" y="363" width="180" height="100" as="geometry">
            <mxRectangle x="130" y="380" width="160" height="26" as="alternateBounds" />
          </mxGeometry>
        </mxCell>
        <mxCell id="9lJRW0mbOuph0sGCFReC-4" value="" style="line;html=1;strokeWidth=1;align=left;verticalAlign=middle;spacingTop=-1;spacingLeft=3;spacingRight=3;rotatable=0;labelPosition=right;points=[];portConstraint=eastwest;" parent="9lJRW0mbOuph0sGCFReC-1" vertex="1">
          <mxGeometry y="26" width="180" height="8" as="geometry" />
        </mxCell>
        <mxCell id="9lJRW0mbOuph0sGCFReC-5" value="# Get_usuario()&#xa;# Connect() -extended" style="text;align=left;verticalAlign=top;spacingLeft=4;spacingRight=4;overflow=hidden;rotatable=0;points=[[0,0.5],[1,0.5]];portConstraint=eastwest;fontStyle=0" parent="9lJRW0mbOuph0sGCFReC-1" vertex="1">
          <mxGeometry y="34" width="180" height="66" as="geometry" />
        </mxCell>
        <mxCell id="9lJRW0mbOuph0sGCFReC-13" style="edgeStyle=orthogonalEdgeStyle;rounded=0;orthogonalLoop=1;jettySize=auto;html=1;exitX=0.5;exitY=0;exitDx=0;exitDy=0;" parent="WIyWlLk6GJQsqaUBKTNV-1" source="9lJRW0mbOuph0sGCFReC-7" edge="1">
          <mxGeometry relative="1" as="geometry">
            <mxPoint x="450" y="250" as="targetPoint" />
          </mxGeometry>
        </mxCell>
        <mxCell id="9lJRW0mbOuph0sGCFReC-7" value="REGISTRO_PACIENTE" style="swimlane;fontStyle=0;align=center;verticalAlign=top;childLayout=stackLayout;horizontal=1;startSize=26;horizontalStack=0;resizeParent=1;resizeLast=0;collapsible=1;marginBottom=0;rounded=0;shadow=0;strokeWidth=1;" parent="WIyWlLk6GJQsqaUBKTNV-1" vertex="1">
          <mxGeometry x="590" y="360" width="180" height="100" as="geometry">
            <mxRectangle x="130" y="380" width="160" height="26" as="alternateBounds" />
          </mxGeometry>
        </mxCell>
        <mxCell id="9lJRW0mbOuph0sGCFReC-10" value="" style="line;html=1;strokeWidth=1;align=left;verticalAlign=middle;spacingTop=-1;spacingLeft=3;spacingRight=3;rotatable=0;labelPosition=right;points=[];portConstraint=eastwest;" parent="9lJRW0mbOuph0sGCFReC-7" vertex="1">
          <mxGeometry y="26" width="180" height="8" as="geometry" />
        </mxCell>
        <mxCell id="9lJRW0mbOuph0sGCFReC-12" value="# Create_paciente()&#xa;# Checar_paciente()&#xa;# connect() -extended" style="text;align=left;verticalAlign=top;spacingLeft=4;spacingRight=4;overflow=hidden;rotatable=0;points=[[0,0.5],[1,0.5]];portConstraint=eastwest;" parent="9lJRW0mbOuph0sGCFReC-7" vertex="1">
          <mxGeometry y="34" width="180" height="60" as="geometry" />
        </mxCell>
        <mxCell id="9lJRW0mbOuph0sGCFReC-17" value="" style="endArrow=block;endSize=10;endFill=0;shadow=0;strokeWidth=1;rounded=0;curved=0;edgeStyle=elbowEdgeStyle;elbow=vertical;exitX=0.587;exitY=0.017;exitDx=0;exitDy=0;entryX=0.557;entryY=1.037;entryDx=0;entryDy=0;entryPerimeter=0;exitPerimeter=0;" parent="WIyWlLk6GJQsqaUBKTNV-1" source="9lJRW0mbOuph0sGCFReC-26" target="9lJRW0mbOuph0sGCFReC-5" edge="1">
          <mxGeometry width="160" relative="1" as="geometry">
            <mxPoint x="449.5" y="626" as="sourcePoint" />
            <mxPoint x="440" y="500" as="targetPoint" />
            <Array as="points">
              <mxPoint x="479.5" y="598" />
            </Array>
          </mxGeometry>
        </mxCell>
        <mxCell id="9lJRW0mbOuph0sGCFReC-18" value="" style="endArrow=block;endSize=10;endFill=0;shadow=0;strokeWidth=1;rounded=0;curved=0;edgeStyle=elbowEdgeStyle;elbow=vertical;exitX=0.5;exitY=0;exitDx=0;exitDy=0;" parent="WIyWlLk6GJQsqaUBKTNV-1" source="9lJRW0mbOuph0sGCFReC-20" edge="1">
          <mxGeometry width="160" relative="1" as="geometry">
            <mxPoint x="199.5" y="626" as="sourcePoint" />
            <mxPoint x="200" y="460" as="targetPoint" />
            <Array as="points">
              <mxPoint x="229.5" y="598" />
            </Array>
          </mxGeometry>
        </mxCell>
        <mxCell id="9lJRW0mbOuph0sGCFReC-19" value="" style="endArrow=block;endSize=10;endFill=0;shadow=0;strokeWidth=1;rounded=0;curved=0;edgeStyle=elbowEdgeStyle;elbow=vertical;exitX=0.5;exitY=0;exitDx=0;exitDy=0;entryX=0.5;entryY=1;entryDx=0;entryDy=0;" parent="WIyWlLk6GJQsqaUBKTNV-1" source="9lJRW0mbOuph0sGCFReC-32" target="9lJRW0mbOuph0sGCFReC-7" edge="1">
          <mxGeometry width="160" relative="1" as="geometry">
            <mxPoint x="679.5" y="626" as="sourcePoint" />
            <mxPoint x="680" y="498" as="targetPoint" />
            <Array as="points">
              <mxPoint x="709.5" y="598" />
            </Array>
          </mxGeometry>
        </mxCell>
        <mxCell id="9lJRW0mbOuph0sGCFReC-20" value="FUNCIONÁRIO" style="swimlane;fontStyle=2;align=center;verticalAlign=top;childLayout=stackLayout;horizontal=1;startSize=26;horizontalStack=0;resizeParent=1;resizeLast=0;collapsible=1;marginBottom=0;rounded=0;shadow=0;strokeWidth=1;" parent="WIyWlLk6GJQsqaUBKTNV-1" vertex="1">
          <mxGeometry x="100" y="630" width="200" height="310" as="geometry">
            <mxRectangle x="230" y="140" width="160" height="26" as="alternateBounds" />
          </mxGeometry>
        </mxCell>
        <mxCell id="9lJRW0mbOuph0sGCFReC-21" value="&#xa;- NomeCompleto&#xa;- Senha&#xa;- SenhaRepetida&#xa;- Email&#xa;- Idade&#xa;- Cargo&#xa;- CPF&#xa;- CRM&#xa;&#xa;" style="text;align=left;verticalAlign=top;spacingLeft=4;spacingRight=4;overflow=hidden;rotatable=0;points=[[0,0.5],[1,0.5]];portConstraint=eastwest;" parent="9lJRW0mbOuph0sGCFReC-20" vertex="1">
          <mxGeometry y="26" width="200" height="144" as="geometry" />
        </mxCell>
        <mxCell id="9lJRW0mbOuph0sGCFReC-24" value="" style="line;html=1;strokeWidth=1;align=left;verticalAlign=middle;spacingTop=-1;spacingLeft=3;spacingRight=3;rotatable=0;labelPosition=right;points=[];portConstraint=eastwest;" parent="9lJRW0mbOuph0sGCFReC-20" vertex="1">
          <mxGeometry y="170" width="200" height="10" as="geometry" />
        </mxCell>
        <mxCell id="9lJRW0mbOuph0sGCFReC-25" value="+ __construct()&#xa;+ Validar_cadastro_funcionario()&#xa;+ Campo_vazio()&#xa;+ Validar_senha()&#xa;+ Validar_email()&#xa;+ Validar_nome_usuario()&#xa;+ Set_usuario() - extended&#xa;+ Connect() -extended&#xa;&#xa;&#xa;&#xa;&#xa;&#xa;&#xa;" style="text;align=left;verticalAlign=top;spacingLeft=4;spacingRight=4;overflow=hidden;rotatable=0;points=[[0,0.5],[1,0.5]];portConstraint=eastwest;" parent="9lJRW0mbOuph0sGCFReC-20" vertex="1">
          <mxGeometry y="180" width="200" height="130" as="geometry" />
        </mxCell>
        <mxCell id="9lJRW0mbOuph0sGCFReC-26" value="CONTROLE_LOGIN" style="swimlane;fontStyle=2;align=center;verticalAlign=top;childLayout=stackLayout;horizontal=1;startSize=26;horizontalStack=0;resizeParent=1;resizeLast=0;collapsible=1;marginBottom=0;rounded=0;shadow=0;strokeWidth=1;" parent="WIyWlLk6GJQsqaUBKTNV-1" vertex="1">
          <mxGeometry x="330" y="630" width="220" height="172" as="geometry">
            <mxRectangle x="230" y="140" width="160" height="26" as="alternateBounds" />
          </mxGeometry>
        </mxCell>
        <mxCell id="9lJRW0mbOuph0sGCFReC-27" value="- Email&#xa;- Senha" style="text;align=left;verticalAlign=top;spacingLeft=4;spacingRight=4;overflow=hidden;rotatable=0;points=[[0,0.5],[1,0.5]];portConstraint=eastwest;" parent="9lJRW0mbOuph0sGCFReC-26" vertex="1">
          <mxGeometry y="26" width="220" height="44" as="geometry" />
        </mxCell>
        <mxCell id="9lJRW0mbOuph0sGCFReC-30" value="" style="line;html=1;strokeWidth=1;align=left;verticalAlign=middle;spacingTop=-1;spacingLeft=3;spacingRight=3;rotatable=0;labelPosition=right;points=[];portConstraint=eastwest;" parent="9lJRW0mbOuph0sGCFReC-26" vertex="1">
          <mxGeometry y="70" width="220" height="8" as="geometry" />
        </mxCell>
        <mxCell id="9lJRW0mbOuph0sGCFReC-31" value="+ __construct()&#xa;+ Validar_login_funcionario()&#xa;+ Campo_vazio()&#xa;+ Get_usuario() -extended&#xa;+ Connect() -extended&#xa;&#xa;" style="text;align=left;verticalAlign=top;spacingLeft=4;spacingRight=4;overflow=hidden;rotatable=0;points=[[0,0.5],[1,0.5]];portConstraint=eastwest;" parent="9lJRW0mbOuph0sGCFReC-26" vertex="1">
          <mxGeometry y="78" width="220" height="94" as="geometry" />
        </mxCell>
        <mxCell id="9lJRW0mbOuph0sGCFReC-32" value="controle_paciente" style="swimlane;fontStyle=2;align=center;verticalAlign=top;childLayout=stackLayout;horizontal=1;startSize=26;horizontalStack=0;resizeParent=1;resizeLast=0;collapsible=1;marginBottom=0;rounded=0;shadow=0;strokeWidth=1;" parent="WIyWlLk6GJQsqaUBKTNV-1" vertex="1">
          <mxGeometry x="575" y="630" width="210" height="280" as="geometry">
            <mxRectangle x="230" y="140" width="160" height="26" as="alternateBounds" />
          </mxGeometry>
        </mxCell>
        <mxCell id="9lJRW0mbOuph0sGCFReC-33" value="- NomePaciente&#xa;- Idade&#xa;- Sexo&#xa;- Cidade&#xa;- Estado&#xa;- Cpf&#xa;- Email&#xa;- Telefone&#xa;" style="text;align=left;verticalAlign=top;spacingLeft=4;spacingRight=4;overflow=hidden;rotatable=0;points=[[0,0.5],[1,0.5]];portConstraint=eastwest;" parent="9lJRW0mbOuph0sGCFReC-32" vertex="1">
          <mxGeometry y="26" width="210" height="134" as="geometry" />
        </mxCell>
        <mxCell id="9lJRW0mbOuph0sGCFReC-36" value="" style="line;html=1;strokeWidth=1;align=left;verticalAlign=middle;spacingTop=-1;spacingLeft=3;spacingRight=3;rotatable=0;labelPosition=right;points=[];portConstraint=eastwest;" parent="9lJRW0mbOuph0sGCFReC-32" vertex="1">
          <mxGeometry y="160" width="210" height="20" as="geometry" />
        </mxCell>
        <mxCell id="9lJRW0mbOuph0sGCFReC-37" value="+ Validar_registro_paciente()&#xa;+ Validar_email()&#xa;+ Validar_nome_paciente()&#xa;+ Checar_paciente() - extended&#xa;+ Connect() - extended" style="text;align=left;verticalAlign=top;spacingLeft=4;spacingRight=4;overflow=hidden;rotatable=0;points=[[0,0.5],[1,0.5]];portConstraint=eastwest;" parent="9lJRW0mbOuph0sGCFReC-32" vertex="1">
          <mxGeometry y="180" width="210" height="100" as="geometry" />
        </mxCell>
        <mxCell id="9lJRW0mbOuph0sGCFReC-43" value="CADASTRO_PRONTUÁRIO" style="swimlane;fontStyle=0;align=center;verticalAlign=top;childLayout=stackLayout;horizontal=1;startSize=26;horizontalStack=0;resizeParent=1;resizeLast=0;collapsible=1;marginBottom=0;rounded=0;shadow=0;strokeWidth=1;" parent="WIyWlLk6GJQsqaUBKTNV-1" vertex="1">
          <mxGeometry x="840" y="362" width="210" height="108" as="geometry">
            <mxRectangle x="130" y="380" width="160" height="26" as="alternateBounds" />
          </mxGeometry>
        </mxCell>
        <mxCell id="9lJRW0mbOuph0sGCFReC-44" value="" style="line;html=1;strokeWidth=1;align=left;verticalAlign=middle;spacingTop=-1;spacingLeft=3;spacingRight=3;rotatable=0;labelPosition=right;points=[];portConstraint=eastwest;" parent="9lJRW0mbOuph0sGCFReC-43" vertex="1">
          <mxGeometry y="26" width="210" height="8" as="geometry" />
        </mxCell>
        <mxCell id="9lJRW0mbOuph0sGCFReC-46" value="# Create_prontuario()&#xa;# Checar_prontuario()&#xa;# Connect() -extended" style="text;align=left;verticalAlign=top;spacingLeft=4;spacingRight=4;overflow=hidden;rotatable=0;points=[[0,0.5],[1,0.5]];portConstraint=eastwest;" parent="9lJRW0mbOuph0sGCFReC-43" vertex="1">
          <mxGeometry y="34" width="210" height="60" as="geometry" />
        </mxCell>
        <mxCell id="9lJRW0mbOuph0sGCFReC-47" style="edgeStyle=orthogonalEdgeStyle;rounded=0;orthogonalLoop=1;jettySize=auto;html=1;exitX=0.5;exitY=0;exitDx=0;exitDy=0;" parent="WIyWlLk6GJQsqaUBKTNV-1" source="9lJRW0mbOuph0sGCFReC-43" edge="1">
          <mxGeometry relative="1" as="geometry">
            <mxPoint x="450" y="250" as="targetPoint" />
            <mxPoint x="930" y="300" as="sourcePoint" />
          </mxGeometry>
        </mxCell>
        <mxCell id="9lJRW0mbOuph0sGCFReC-48" value="controle_prontuario" style="swimlane;fontStyle=2;align=center;verticalAlign=top;childLayout=stackLayout;horizontal=1;startSize=26;horizontalStack=0;resizeParent=1;resizeLast=0;collapsible=1;marginBottom=0;rounded=0;shadow=0;strokeWidth=1;" parent="WIyWlLk6GJQsqaUBKTNV-1" vertex="1">
          <mxGeometry x="840" y="630" width="210" height="160" as="geometry">
            <mxRectangle x="230" y="140" width="160" height="26" as="alternateBounds" />
          </mxGeometry>
        </mxCell>
        <mxCell id="9lJRW0mbOuph0sGCFReC-49" value="- Status_diagnostico&#xa;- Obito&#xa;&#xa;" style="text;align=left;verticalAlign=top;spacingLeft=4;spacingRight=4;overflow=hidden;rotatable=0;points=[[0,0.5],[1,0.5]];portConstraint=eastwest;" parent="9lJRW0mbOuph0sGCFReC-48" vertex="1">
          <mxGeometry y="26" width="210" height="34" as="geometry" />
        </mxCell>
        <mxCell id="9lJRW0mbOuph0sGCFReC-50" value="" style="line;html=1;strokeWidth=1;align=left;verticalAlign=middle;spacingTop=-1;spacingLeft=3;spacingRight=3;rotatable=0;labelPosition=right;points=[];portConstraint=eastwest;" parent="9lJRW0mbOuph0sGCFReC-48" vertex="1">
          <mxGeometry y="60" width="210" height="20" as="geometry" />
        </mxCell>
        <mxCell id="9lJRW0mbOuph0sGCFReC-51" value="+ Validar_cadastro_prontuario()&#xa;+ Checar_prontuario() - extended&#xa;+ Connect() - extended" style="text;align=left;verticalAlign=top;spacingLeft=4;spacingRight=4;overflow=hidden;rotatable=0;points=[[0,0.5],[1,0.5]];portConstraint=eastwest;" parent="9lJRW0mbOuph0sGCFReC-48" vertex="1">
          <mxGeometry y="80" width="210" height="80" as="geometry" />
        </mxCell>
        <mxCell id="9lJRW0mbOuph0sGCFReC-52" value="" style="endArrow=block;endSize=10;endFill=0;shadow=0;strokeWidth=1;rounded=0;curved=0;edgeStyle=elbowEdgeStyle;elbow=vertical;exitX=0.5;exitY=0;exitDx=0;exitDy=0;entryX=0.5;entryY=1;entryDx=0;entryDy=0;" parent="WIyWlLk6GJQsqaUBKTNV-1" source="9lJRW0mbOuph0sGCFReC-48" target="9lJRW0mbOuph0sGCFReC-43" edge="1">
          <mxGeometry width="160" relative="1" as="geometry">
            <mxPoint x="944.5" y="630" as="sourcePoint" />
            <mxPoint x="944.5" y="498" as="targetPoint" />
            <Array as="points">
              <mxPoint x="974" y="598" />
            </Array>
          </mxGeometry>
        </mxCell>
      </root>
    </mxGraphModel>
  </diagram>
</mxfile>
